<svg version="1.1" id="logo" xmlns="http://www.w3.org/2000/svg" xmlns:xlink="http://www.w3.org/1999/xlink" x="0px" y="0px"
	  viewBox="0 0 1660.596 1243.816" style="enable-background:new 0 0 1660.596 1243.816;"
	 xml:space="preserve">
<defs>
<style type="text/css">

.st0{fill:#fff;fill-opacity:0;stroke:#fff;stroke-width:30;stroke-linecap:round;stroke-linejoin:round;stroke-miterlimit:4;}

.st0 {
        stroke-dasharray: 8000;
        stroke-dashoffset:0;
        -webkit-animation: draw 5s infinite;
        animation: draw 5s infinite;
    }
  
  #logo {
      cursor:pointer;
  }
  
  @-webkit-keyframes draw {
          from {
              stroke-dashoffset: 8000;
          }
          to {
              stroke-dashoffset: 0;
          }
      }

  @keyframes draw {
      from {
          stroke-dashoffset: 8000;
      }
      to {
          stroke-dashoffset: 0;
      }
  }      

</style>
</defs>
<g>
	<path class="st0" d="M1028.738,96.368c-21.072,15.212-58.399,25.754-79.737,13.097
		c-21.335-12.66-26.678-48.518-46.339-70.742c-19.663-22.225-53.638-30.817-80.186-20.327
		c-26.548,10.492-45.673,40.068-67.463,49.97c-21.787,9.901-46.243,0.13-70.291-14.193c-24.048-14.323-47.689-33.195-77.665-39.825
		c-29.979-6.63-66.292-1.02-92.846,11.924c-26.551,12.941-43.343,33.213-59.219,53.134c-15.875,19.918-30.839,39.486-52.284,42.407
		c-21.445,2.918-49.373-10.811-79.656-14.178c-30.284-3.37-62.922,3.625-88.271,17.696c-25.351,14.071-43.412,35.218-58.932,59.21
		c-15.522,23.992-28.506,50.833-24.175,81.241c4.332,30.405,25.98,64.38,17.565,82.977c-8.415,18.6-46.889,21.822-75.182,34.919
		c-28.292,13.1-46.4,36.073-55.979,61.998c-9.583,25.925-10.634,54.803-8.05,84.191c2.585,29.385,8.81,59.28,29.875,79.042
		c21.066,19.756,56.973,29.376,71.229,45.05c14.253,15.673,6.859,37.4,0.759,64.75c-6.099,27.348-10.901,60.32-12.004,88.502
		c-1.104,28.185,1.489,51.584,10.13,75.463c8.641,23.882,23.329,48.248,42.955,69.14c19.623,20.892,44.186,38.312,70.931,45.273
		c26.742,6.957,55.672,3.457,83.492-8.89c27.823-12.347,54.539-33.537,56.353-56.417c1.814-22.883-21.277-47.452-42.488-46.861
		c-21.211,0.591-40.538,26.342-49.611,52.748c-9.072,26.403-7.887,53.459-3.436,80.766c4.448,27.307,12.161,54.867,19.15,83.188
		c6.992,28.321,13.26,57.405,24.43,81.864c11.17,24.459,27.241,44.293,37.803,34.302c10.562-9.988,15.615-49.798,21.141-82.695
		c5.529-32.897,11.529-58.88,17.383-83.646c5.853-24.766,11.562-48.312,19.15-83.257c7.592-34.948,17.067-81.293,24.256-81.322
		c7.191-0.026,12.094,46.263,14.43,81.525c2.333,35.264,2.101,59.5,1.964,85.399c-0.136,25.899-0.174,53.458-1.472,85.419
		c-1.298,31.961-3.857,68.323,3.747,85.306c7.604,16.983,25.366,14.587,39.338-1.852c13.97-16.435,24.143-46.91,36.107-80.389
		c11.961-33.479,25.711-69.96,44.319-82.736c18.605-12.776,42.068-1.846,61.485-17.618c19.414-15.775,34.783-58.251,47.565-57.912
		c12.784,0.339,22.987,43.496,45.678,68.59c22.688,25.097,57.869,32.132,87.448,33.062c29.582,0.93,53.568-4.245,77.173-16.209
		c23.604-11.964,46.829-30.715,63.496-55.235c16.67-24.52,26.78-54.809,19.432-81.641c-7.346-26.832-32.149-50.204-50.12-44.145
		c-17.969,6.056-29.11,41.549-26.757,71.713c2.35,30.167,18.191,55.011,37.551,96.897c19.356,41.885,42.233,100.814,60.598,125.464
		c18.368,24.653,32.231,15.027,38.402-20.057c6.175-35.084,4.659-95.63,3.75-140.535c-0.907-44.904-1.208-74.168,1.768-102.124
		c2.979-27.956,9.232-54.606,16.832-47.191c7.598,7.418,16.539,48.9,27.803,95.025c11.26,46.127,24.842,96.9,40.558,138.77
		c15.717,41.871,33.566,74.843,45.342,70.636c11.776-4.208,17.479-45.591,18.467-93.791c0.985-48.202-2.744-103.222-0.252-143.001
		c2.492-39.779,11.202-64.319,29.57-82.748c18.365-18.426,46.383-30.738,64.837-51.691c18.455-20.953,27.348-50.546,26.203-79.613
		c-1.144-29.066-12.323-57.608-32.08-76.489c-19.756-18.884-48.089-28.11-75.39-39.022c-27.302-10.91-53.568-23.506-72.965-43.253
		c-19.396-19.747-31.92-46.649-42.523-73.139c-10.599-26.493-19.278-52.58-22.944-82.252c-3.665-29.669-2.318-62.925-8.777-84.677
		c-6.458-21.752-20.724-32.007-44.212-36.362c-23.488-4.358-56.2-2.819-85.373-3.075c-29.176-0.252-54.817-2.301-80.838-9.159
		c-26.023-6.861-52.429-18.533-51.772-35.386c0.658-16.85,28.376-38.88,53.882-55.148c25.502-16.265,48.785-26.763,76.269-31.828
		c27.481-5.062,59.164-4.688,84.718-3.576c25.551,1.11,44.977,2.961,60.517-10.104c15.54-13.063,27.197-41.036,52.885-57.069
		c25.684-16.03,65.402-20.115,99.957-19.165c34.554,0.948,63.945,6.931,86.112,25.082c22.17,18.154,37.116,48.478,60.126,59.714
		c23.013,11.234,54.096,3.382,84.796-0.898c30.7-4.283,61.024-4.99,95.955,6.102c34.931,11.092,74.472,33.983,70.618,58.425
		c-3.854,24.442-51.103,50.43-88.198,65.037c-37.098,14.604-64.038,17.826-91.637,25.091c-27.597,7.264-55.855,18.571-64.739,40.657
		c-8.884,22.089,1.602,54.957,4.729,85.092c3.126,30.138-1.107,57.544-8.25,84.883c-7.145,27.336-17.197,54.606-33.618,77.987"/>
</g>
</svg>
